# xmcd
#
# Track frame offsets: 
#        150
#        43537
#        78460
#        92611
#        125634
#        138963
#        173559
#        219205
#        251408
#        276536
#
# Disc length: 4064 seconds
#
# Revision: 0
# Processed by: cddbd v1.5.2PL0 Copyright (c) Steve Scherf et al.
# Submitted via: ExactAudioCopyFreeDBPlugin 1.0
#
DISCID=850fde0a
DTITLE=Ludwig van Beethoven (1770-1827) - ensemble acht
DYEAR=2002
DGENRE=Classical
TTITLE0=Beethoven - Septett Es- dur op. 20 - 1. Adagio - Allegro con b
TTITLE0=rio (Annette Fehrmann, 1. Violine - 2002)
TTITLE1=Beethoven - Septett Es- dur op. 20 - 2. Adagio cantabile ( und
TTITLE1=Esther Przybylski, Viola - 2002)
TTITLE2=Beethoven - Septett Es- dur op. 20 - 3. Tempo di Menuetto (und
TTITLE2=Ingo Zander, Violoncello - 2002) 
TTITLE3=Beethoven - Septett Es- dur op. 20 - 4. Thema con Variazioni. 
TTITLE3=Andante (und Stefan Schäfer, Kontrabass - 2002)
TTITLE4=Beethoven - Septett Es- dur op. 20 - 5. Scherzo. Allegro assai
TTITLE4=(und Ulf-Guido Schäfer, Klarinette -Christoph Moinian, Horn -
TTITLE4=2002)
TTITLE5=Beethoven - Septett Es- dur op. 20 - 6. Andante con moto alla 
TTITLE5=Marcia. Presto (und Volker Tessmann, Fagott - 2002)
TTITLE6=Beethoven - Streichquintett Nr. 1 Es-dur op. 4 - 1. Allegro co
TTITLE6=n brio (wie op. 20 und dazu Barbara Doll, 2. Violine - 2002)
TTITLE7=Beethoven - Streichquintett Nr. 1 Es-dur op. 4 - 2. Andante(wi
TTITLE7=e op. 20 und dazu Barbara Doll, 2. Violine - 2002)
TTITLE8=Beethoven - Streichquintett Nr. 1 Es-dur op. 4 - 3. Menuetto. 
TTITLE8=Più Allegretto(wie op. 20 und dazu Barbara Doll, 2. Violine - 
TTITLE8=2002)
TTITLE9=Beethoven - Streichquintett Nr. 1 Es-dur op. 4 - 4. Finale. Pr
TTITLE9=esto(wie op. 20 und dazu Barbara Doll, 2. Violine - 2002)
EXTD=
EXTT0=
EXTT1=
EXTT2=
EXTT3=
EXTT4=
EXTT5=
EXTT6=
EXTT7=
EXTT8=
EXTT9=
PLAYORDER=
